<mxfile host="app.diagrams.net" modified="2024-01-29T07:02:53.196Z" agent="Mozilla/5.0 (Windows NT 10.0; Win64; x64) AppleWebKit/537.36 (KHTML, like Gecko) Chrome/121.0.0.0 Safari/537.36" etag="GVWjdlwzpkYEQCKUj1R0" version="23.0.2" type="github">
  <diagram name="Page-1" id="_0XzOybCo_KC0RPcw1HC">
    <mxGraphModel dx="792" dy="446" grid="1" gridSize="10" guides="1" tooltips="1" connect="1" arrows="1" fold="1" page="1" pageScale="1" pageWidth="850" pageHeight="1100" math="0" shadow="0">
      <root>
        <mxCell id="0" />
        <mxCell id="1" parent="0" />
        <mxCell id="jaCLuksXTeSxfOPF52hZ-1" value="" style="rounded=1;whiteSpace=wrap;html=1;" vertex="1" parent="1">
          <mxGeometry x="25" y="415" width="110" height="40" as="geometry" />
        </mxCell>
        <mxCell id="jaCLuksXTeSxfOPF52hZ-2" value="&lt;font style=&quot;font-size: 19px;&quot;&gt;User&lt;/font&gt;" style="text;html=1;strokeColor=none;fillColor=none;align=center;verticalAlign=middle;whiteSpace=wrap;rounded=0;" vertex="1" parent="1">
          <mxGeometry x="50" y="420" width="60" height="30" as="geometry" />
        </mxCell>
        <mxCell id="jaCLuksXTeSxfOPF52hZ-3" value="" style="endArrow=classic;html=1;rounded=0;exitX=1;exitY=0.5;exitDx=0;exitDy=0;" edge="1" parent="1" source="jaCLuksXTeSxfOPF52hZ-1">
          <mxGeometry width="50" height="50" relative="1" as="geometry">
            <mxPoint x="150" y="460" as="sourcePoint" />
            <mxPoint x="200" y="435" as="targetPoint" />
          </mxGeometry>
        </mxCell>
        <mxCell id="jaCLuksXTeSxfOPF52hZ-4" value="" style="rounded=1;whiteSpace=wrap;html=1;" vertex="1" parent="1">
          <mxGeometry x="200" y="415" width="110" height="40" as="geometry" />
        </mxCell>
        <mxCell id="jaCLuksXTeSxfOPF52hZ-5" value="&lt;font style=&quot;font-size: 15px;&quot;&gt;Mengunjungi perpus&lt;/font&gt;" style="text;html=1;strokeColor=none;fillColor=none;align=center;verticalAlign=middle;whiteSpace=wrap;rounded=0;" vertex="1" parent="1">
          <mxGeometry x="235" y="420" width="40" height="30" as="geometry" />
        </mxCell>
        <mxCell id="jaCLuksXTeSxfOPF52hZ-7" value="" style="rounded=1;whiteSpace=wrap;html=1;" vertex="1" parent="1">
          <mxGeometry x="360" y="330" width="110" height="40" as="geometry" />
        </mxCell>
        <mxCell id="jaCLuksXTeSxfOPF52hZ-10" value="&lt;span style=&quot;font-size: 15px;&quot;&gt;Isi Form Pengunjung&lt;/span&gt;" style="text;html=1;strokeColor=none;fillColor=none;align=center;verticalAlign=middle;whiteSpace=wrap;rounded=0;" vertex="1" parent="1">
          <mxGeometry x="395" y="335" width="40" height="30" as="geometry" />
        </mxCell>
        <mxCell id="jaCLuksXTeSxfOPF52hZ-11" value="" style="rounded=1;whiteSpace=wrap;html=1;" vertex="1" parent="1">
          <mxGeometry x="360" y="510" width="110" height="40" as="geometry" />
        </mxCell>
        <mxCell id="jaCLuksXTeSxfOPF52hZ-14" value="&lt;span style=&quot;font-size: 15px;&quot;&gt;Pencarian Buku&amp;nbsp;&lt;br&gt;&lt;/span&gt;" style="text;html=1;strokeColor=none;fillColor=none;align=center;verticalAlign=middle;whiteSpace=wrap;rounded=0;" vertex="1" parent="1">
          <mxGeometry x="395" y="515" width="40" height="30" as="geometry" />
        </mxCell>
        <mxCell id="jaCLuksXTeSxfOPF52hZ-15" value="" style="endArrow=classic;html=1;rounded=0;" edge="1" parent="1">
          <mxGeometry width="50" height="50" relative="1" as="geometry">
            <mxPoint x="470" y="529.5" as="sourcePoint" />
            <mxPoint x="520" y="529.5" as="targetPoint" />
          </mxGeometry>
        </mxCell>
        <mxCell id="jaCLuksXTeSxfOPF52hZ-16" value="" style="rounded=1;whiteSpace=wrap;html=1;" vertex="1" parent="1">
          <mxGeometry x="520" y="510" width="110" height="40" as="geometry" />
        </mxCell>
        <mxCell id="jaCLuksXTeSxfOPF52hZ-17" value="&lt;font style=&quot;font-size: 15px;&quot;&gt;Isi Judul Buku&lt;/font&gt;" style="text;html=1;strokeColor=none;fillColor=none;align=center;verticalAlign=middle;whiteSpace=wrap;rounded=0;" vertex="1" parent="1">
          <mxGeometry x="545" y="515" width="60" height="30" as="geometry" />
        </mxCell>
        <mxCell id="jaCLuksXTeSxfOPF52hZ-18" value="" style="rounded=1;whiteSpace=wrap;html=1;" vertex="1" parent="1">
          <mxGeometry x="680" y="510" width="110" height="40" as="geometry" />
        </mxCell>
        <mxCell id="jaCLuksXTeSxfOPF52hZ-19" value="" style="endArrow=classic;html=1;rounded=0;" edge="1" parent="1">
          <mxGeometry width="50" height="50" relative="1" as="geometry">
            <mxPoint x="630" y="529.5" as="sourcePoint" />
            <mxPoint x="680" y="529.5" as="targetPoint" />
          </mxGeometry>
        </mxCell>
        <mxCell id="jaCLuksXTeSxfOPF52hZ-20" value="&lt;font style=&quot;font-size: 15px;&quot;&gt;Hasil Pencarian&lt;/font&gt;" style="text;html=1;strokeColor=none;fillColor=none;align=center;verticalAlign=middle;whiteSpace=wrap;rounded=0;" vertex="1" parent="1">
          <mxGeometry x="700" y="515" width="60" height="30" as="geometry" />
        </mxCell>
        <mxCell id="jaCLuksXTeSxfOPF52hZ-22" value="" style="endArrow=classic;html=1;rounded=0;" edge="1" parent="1">
          <mxGeometry width="50" height="50" relative="1" as="geometry">
            <mxPoint x="730" y="550" as="sourcePoint" />
            <mxPoint x="730" y="610" as="targetPoint" />
          </mxGeometry>
        </mxCell>
        <mxCell id="jaCLuksXTeSxfOPF52hZ-23" value="" style="rounded=1;whiteSpace=wrap;html=1;" vertex="1" parent="1">
          <mxGeometry x="680" y="610" width="110" height="40" as="geometry" />
        </mxCell>
        <mxCell id="jaCLuksXTeSxfOPF52hZ-24" value="&lt;font style=&quot;font-size: 15px;&quot;&gt;Lihat Rincian Buku&lt;/font&gt;" style="text;html=1;strokeColor=none;fillColor=none;align=center;verticalAlign=middle;whiteSpace=wrap;rounded=0;" vertex="1" parent="1">
          <mxGeometry x="690" y="606.25" width="90" height="47.5" as="geometry" />
        </mxCell>
        <mxCell id="jaCLuksXTeSxfOPF52hZ-28" value="" style="endArrow=none;html=1;rounded=0;exitX=1;exitY=0.5;exitDx=0;exitDy=0;" edge="1" parent="1" source="jaCLuksXTeSxfOPF52hZ-4">
          <mxGeometry width="50" height="50" relative="1" as="geometry">
            <mxPoint x="330" y="470" as="sourcePoint" />
            <mxPoint x="340" y="435" as="targetPoint" />
          </mxGeometry>
        </mxCell>
        <mxCell id="jaCLuksXTeSxfOPF52hZ-29" value="" style="endArrow=none;html=1;rounded=0;" edge="1" parent="1">
          <mxGeometry width="50" height="50" relative="1" as="geometry">
            <mxPoint x="340" y="540" as="sourcePoint" />
            <mxPoint x="340" y="340" as="targetPoint" />
          </mxGeometry>
        </mxCell>
        <mxCell id="jaCLuksXTeSxfOPF52hZ-30" value="" style="endArrow=classic;html=1;rounded=0;entryX=0;entryY=0.25;entryDx=0;entryDy=0;" edge="1" parent="1" target="jaCLuksXTeSxfOPF52hZ-7">
          <mxGeometry width="50" height="50" relative="1" as="geometry">
            <mxPoint x="340" y="340" as="sourcePoint" />
            <mxPoint x="380" y="340" as="targetPoint" />
          </mxGeometry>
        </mxCell>
        <mxCell id="jaCLuksXTeSxfOPF52hZ-31" value="" style="endArrow=classic;html=1;rounded=0;" edge="1" parent="1">
          <mxGeometry width="50" height="50" relative="1" as="geometry">
            <mxPoint x="340" y="540" as="sourcePoint" />
            <mxPoint x="360" y="540" as="targetPoint" />
          </mxGeometry>
        </mxCell>
        <mxCell id="jaCLuksXTeSxfOPF52hZ-32" value="" style="endArrow=classic;html=1;rounded=0;" edge="1" parent="1">
          <mxGeometry width="50" height="50" relative="1" as="geometry">
            <mxPoint x="470" y="349.5" as="sourcePoint" />
            <mxPoint x="520" y="349.5" as="targetPoint" />
          </mxGeometry>
        </mxCell>
        <mxCell id="jaCLuksXTeSxfOPF52hZ-33" value="" style="rounded=1;whiteSpace=wrap;html=1;" vertex="1" parent="1">
          <mxGeometry x="520" y="330" width="110" height="40" as="geometry" />
        </mxCell>
        <mxCell id="jaCLuksXTeSxfOPF52hZ-34" value="" style="endArrow=classic;html=1;rounded=0;" edge="1" parent="1">
          <mxGeometry width="50" height="50" relative="1" as="geometry">
            <mxPoint x="630" y="349.5" as="sourcePoint" />
            <mxPoint x="680" y="349.5" as="targetPoint" />
          </mxGeometry>
        </mxCell>
        <mxCell id="jaCLuksXTeSxfOPF52hZ-35" value="" style="rounded=1;whiteSpace=wrap;html=1;" vertex="1" parent="1">
          <mxGeometry x="680" y="330" width="110" height="40" as="geometry" />
        </mxCell>
        <mxCell id="jaCLuksXTeSxfOPF52hZ-36" value="" style="endArrow=none;html=1;rounded=0;" edge="1" parent="1">
          <mxGeometry width="50" height="50" relative="1" as="geometry">
            <mxPoint x="740" y="400" as="sourcePoint" />
            <mxPoint x="740" y="370" as="targetPoint" />
          </mxGeometry>
        </mxCell>
        <mxCell id="jaCLuksXTeSxfOPF52hZ-37" value="" style="endArrow=none;html=1;rounded=0;" edge="1" parent="1">
          <mxGeometry width="50" height="50" relative="1" as="geometry">
            <mxPoint x="410" y="400" as="sourcePoint" />
            <mxPoint x="740" y="400" as="targetPoint" />
          </mxGeometry>
        </mxCell>
        <mxCell id="jaCLuksXTeSxfOPF52hZ-38" value="" style="endArrow=classic;html=1;rounded=0;" edge="1" parent="1">
          <mxGeometry width="50" height="50" relative="1" as="geometry">
            <mxPoint x="410" y="400" as="sourcePoint" />
            <mxPoint x="410" y="370" as="targetPoint" />
          </mxGeometry>
        </mxCell>
        <mxCell id="jaCLuksXTeSxfOPF52hZ-39" value="&lt;span style=&quot;font-size: 15px;&quot;&gt;Kirim&lt;br&gt;&lt;/span&gt;" style="text;html=1;strokeColor=none;fillColor=none;align=center;verticalAlign=middle;whiteSpace=wrap;rounded=0;" vertex="1" parent="1">
          <mxGeometry x="555" y="335" width="40" height="30" as="geometry" />
        </mxCell>
        <mxCell id="jaCLuksXTeSxfOPF52hZ-40" value="&lt;span style=&quot;font-size: 15px;&quot;&gt;Daftar Kunjungan&lt;br&gt;&lt;/span&gt;" style="text;html=1;strokeColor=none;fillColor=none;align=center;verticalAlign=middle;whiteSpace=wrap;rounded=0;" vertex="1" parent="1">
          <mxGeometry x="715" y="335" width="40" height="30" as="geometry" />
        </mxCell>
        <mxCell id="jaCLuksXTeSxfOPF52hZ-41" value="" style="endArrow=none;html=1;rounded=0;entryX=0.5;entryY=1;entryDx=0;entryDy=0;" edge="1" parent="1" target="jaCLuksXTeSxfOPF52hZ-11">
          <mxGeometry width="50" height="50" relative="1" as="geometry">
            <mxPoint x="415" y="640" as="sourcePoint" />
            <mxPoint x="430" y="570" as="targetPoint" />
          </mxGeometry>
        </mxCell>
        <mxCell id="jaCLuksXTeSxfOPF52hZ-43" value="" style="endArrow=classic;html=1;rounded=0;entryX=0;entryY=0.75;entryDx=0;entryDy=0;" edge="1" parent="1" target="jaCLuksXTeSxfOPF52hZ-23">
          <mxGeometry width="50" height="50" relative="1" as="geometry">
            <mxPoint x="420" y="640" as="sourcePoint" />
            <mxPoint x="550" y="630" as="targetPoint" />
          </mxGeometry>
        </mxCell>
      </root>
    </mxGraphModel>
  </diagram>
</mxfile>
